<?xml version="1.0" encoding="iso-8859-1"?>
<!-- Generator: Adobe Illustrator 16.0.0, SVG Export Plug-In . SVG Version: 6.00 Build 0)  -->
<!DOCTYPE svg PUBLIC "-//W3C//DTD SVG 1.1//EN" "http://www.w3.org/Graphics/SVG/1.1/DTD/svg11.dtd">
<svg version="1.1" id="Capa_1" xmlns="http://www.w3.org/2000/svg" xmlns:xlink="http://www.w3.org/1999/xlink" x="0px" y="0px"
	 width="42.814px" height="42.814px" viewBox="0 0 42.814 42.814" style="enable-background:new 0 0 42.814 42.814;"
	 xml:space="preserve">
<g>
	<g>
		<path d="M0,2.318v29.176c0,0.552,0.447,1,1,1h11.789v3.626c0,0.552,0.447,1,1,1h15.236c0.554,0,1-0.448,1-1v-3.626h11.789
			c0.553,0,1-0.448,1-1V2.318c0-0.552-0.447-1-1-1H1C0.448,1.318,0,1.766,0,2.318z M28.027,35.121H14.79v-2.626h13.237V35.121z
			 M40.814,3.318v21.189H2V3.318H40.814z"/>
		<path d="M9.164,39.496c-0.553,0-1,0.448-1,1s0.447,1,1,1h24.488c0.553,0,1-0.448,1-1s-0.447-1-1-1H9.164z"/>
		<path d="M5.246,22.225c0.279,0,0.557-0.115,0.755-0.344l6.018-6.92l5.845,3.36c0.349,0.202,0.786,0.174,1.106-0.073l4.276-3.278
			l8.236,7.017c0.246,0.208,0.576,0.286,0.886,0.21c0.312-0.076,0.567-0.296,0.688-0.594l5.902-14.426
			c0.209-0.511-0.036-1.095-0.547-1.304c-0.51-0.208-1.096,0.035-1.305,0.547l-5.379,13.148l-7.801-6.646
			c-0.359-0.305-0.884-0.319-1.258-0.032l-4.389,3.365l-5.98-3.438c-0.411-0.238-0.938-0.151-1.253,0.21L4.49,20.568
			c-0.362,0.417-0.318,1.048,0.099,1.41C4.779,22.145,5.012,22.225,5.246,22.225z"/>
	</g>
</g>
<g>
</g>
<g>
</g>
<g>
</g>
<g>
</g>
<g>
</g>
<g>
</g>
<g>
</g>
<g>
</g>
<g>
</g>
<g>
</g>
<g>
</g>
<g>
</g>
<g>
</g>
<g>
</g>
<g>
</g>
</svg>
